<svg width="180" height="45" viewBox="0 0 180 45" fill="none" xmlns="http://www.w3.org/2000/svg">
<mask id="mask0_2602_4249" style="mask-type:alpha" maskUnits="userSpaceOnUse" x="0" y="0" width="180" height="45">
<path d="M180 0H0V45H180V0Z" fill="white"/>
</mask>
<g mask="url(#mask0_2602_4249)">
<path d="M0.838369 36.4864C-0.555782 34.0717 0.271569 30.984 2.68631 29.5898C5.10105 28.1957 8.18876 29.023 9.58291 31.4378C10.9771 33.8525 14.0648 34.6798 16.4795 33.2857C18.8943 31.8916 19.7216 28.8038 18.3275 26.389C16.9333 23.9743 17.7607 20.8866 20.1754 19.4925C22.5902 18.0983 25.6779 18.9257 27.072 21.3404C31.2545 28.5847 28.7724 37.8478 21.5282 42.0302C14.284 46.2127 5.02083 43.7306 0.838369 36.4864ZM30.7679 7.54721C32.162 9.96198 31.3346 13.0497 28.9199 14.4438C26.5052 15.838 23.4175 15.0106 22.0233 12.5959C20.6292 10.1811 17.5415 9.35376 15.1267 10.7479C12.712 12.142 11.8847 15.2298 13.2788 17.6446C14.6729 20.0593 13.8456 23.147 11.4309 24.5412C9.01609 25.9353 5.9284 25.108 4.53425 22.6932C0.351797 15.449 2.83385 6.18584 10.0781 2.00339C17.3223 -2.17907 26.5854 0.30299 30.7679 7.54721Z" fill="url(#paint0_linear_2602_4249)"/>
<path d="M50.5442 11.3418C51.8353 11.3418 52.9524 11.5239 53.8959 11.888C54.8559 12.2521 55.7249 12.8066 56.5028 13.5515L54.6159 15.7612C53.4408 14.8011 52.1828 14.3212 50.8421 14.3212C50.1304 14.3212 49.5676 14.4701 49.1538 14.7681C48.74 15.0494 48.5332 15.4633 48.5332 16.0095C48.5332 16.3902 48.6242 16.7046 48.8062 16.9529C48.9883 17.1846 49.311 17.4081 49.7745 17.6233C50.2379 17.8384 50.9331 18.0949 51.86 18.3929C53.6146 18.9557 54.9056 19.6509 55.7332 20.4784C56.5608 21.2895 56.9745 22.4482 56.9745 23.9543C56.9745 25.0303 56.7015 25.9819 56.1553 26.8096C55.6091 27.6205 54.8228 28.2578 53.7966 28.7212C52.7704 29.1682 51.5538 29.3917 50.147 29.3917C48.74 29.3917 47.4903 29.1682 46.3979 28.7212C45.3221 28.2744 44.3951 27.6785 43.6172 26.9337L45.6779 24.6743C46.34 25.2371 47.0186 25.6592 47.7138 25.9406C48.4255 26.2219 49.1952 26.3626 50.0228 26.3626C50.867 26.3626 51.529 26.1805 52.0091 25.8164C52.5056 25.4357 52.7538 24.9143 52.7538 24.2523C52.7538 23.8219 52.6628 23.4661 52.4807 23.1847C52.2987 22.8867 51.9842 22.6219 51.5373 22.3902C51.0904 22.1584 50.4449 21.9102 49.6007 21.6454C47.6972 21.066 46.34 20.3543 45.529 19.5102C44.7344 18.666 44.3373 17.5984 44.3373 16.3074C44.3373 15.3143 44.6021 14.4453 45.1317 13.7004C45.6614 12.9391 46.3979 12.3598 47.3414 11.9625C48.2849 11.5487 49.3524 11.3418 50.5442 11.3418Z" fill="white"/>
<path d="M69.6187 25.1464C69.6187 25.643 69.6848 26.0071 69.8173 26.2389C69.9663 26.4706 70.1979 26.6444 70.5125 26.7602L69.6931 29.3175C68.8821 29.2513 68.22 29.0775 67.7069 28.7961C67.1938 28.4982 66.7966 28.0347 66.5152 27.4058C65.6545 28.7299 64.3304 29.392 62.5427 29.392C61.2351 29.392 60.1924 29.0113 59.4144 28.2499C58.6365 27.4885 58.2476 26.4955 58.2476 25.2706C58.2476 23.8306 58.7772 22.7299 59.8365 21.9685C60.8958 21.2071 62.4269 20.8264 64.4297 20.8264H65.7704V20.2554C65.7704 19.4774 65.6049 18.9478 65.2738 18.6664C64.9427 18.3685 64.3634 18.2195 63.5359 18.2195C63.1055 18.2195 62.5841 18.2857 61.9717 18.4181C61.3593 18.534 60.7303 18.6995 60.0848 18.9147L59.191 16.3326C60.0186 16.0181 60.8627 15.7781 61.7234 15.6126C62.6007 15.4471 63.4118 15.3643 64.1565 15.3643C66.0435 15.3643 67.4256 15.7532 68.3028 16.5312C69.18 17.3092 69.6187 18.476 69.6187 20.0319V25.1464ZM63.6848 26.5864C64.5786 26.5864 65.2738 26.1643 65.7704 25.3202V22.9864H64.8021C63.9083 22.9864 63.2379 23.1437 62.791 23.4581C62.3607 23.7726 62.1455 24.2609 62.1455 24.923C62.1455 25.4526 62.2779 25.8664 62.5427 26.1643C62.8241 26.4458 63.2049 26.5864 63.6848 26.5864Z" fill="white"/>
<path d="M83.726 15.7861L79.5797 28.9697H74.937L70.6914 15.7861H74.9617L77.2956 25.9903L79.7287 15.7861H83.726Z" fill="white"/>
<path d="M96.4548 15.7861L92.3085 28.9697H87.666L83.4204 15.7861H87.6908L90.0243 25.9903L92.4579 15.7861H96.4548Z" fill="white"/>
<path d="M105.112 28.9945C104.583 30.6994 103.713 32.0069 102.505 32.9173C101.314 33.8442 99.7083 34.3656 97.6887 34.4815L97.2666 31.7256C98.5248 31.5601 99.4518 31.2786 100.048 30.8815C100.66 30.4842 101.148 29.8469 101.512 28.9697H100.172L96.1497 15.7861H100.32L102.679 26.4621L105.261 15.7861H109.309L105.112 28.9945Z" fill="white"/>
<path d="M111.134 24.8975C111.747 24.8975 112.268 25.1209 112.698 25.5679C113.145 25.9982 113.368 26.5195 113.368 27.132C113.368 27.761 113.145 28.2989 112.698 28.7458C112.268 29.1762 111.747 29.3913 111.134 29.3913C110.505 29.3913 109.967 29.1762 109.52 28.7458C109.09 28.2989 108.875 27.761 108.875 27.132C108.875 26.5195 109.09 25.9982 109.52 25.5679C109.967 25.1209 110.505 24.8975 111.134 24.8975Z" fill="white"/>
<path d="M121.126 15.3643C122.036 15.3643 122.856 15.4967 123.584 15.7615C124.312 16.0264 124.999 16.4319 125.645 16.9781L123.957 19.3119C123.129 18.6829 122.293 18.3685 121.449 18.3685C120.572 18.3685 119.91 18.6912 119.463 19.3368C119.016 19.9822 118.793 21.025 118.793 22.4651C118.793 23.8554 119.016 24.8403 119.463 25.4195C119.91 25.9988 120.555 26.2885 121.399 26.2885C121.846 26.2885 122.251 26.2223 122.616 26.0899C122.98 25.941 123.419 25.7092 123.932 25.3948L125.645 27.8278C124.338 28.8706 122.856 29.392 121.201 29.392C119.86 29.392 118.702 29.1106 117.725 28.5478C116.749 27.9685 115.995 27.1658 115.465 26.1395C114.936 25.0968 114.671 23.8802 114.671 22.4898C114.671 21.0995 114.936 19.8664 115.465 18.7906C115.995 17.7147 116.749 16.8788 117.725 16.2829C118.702 15.6705 119.835 15.3643 121.126 15.3643Z" fill="white"/>
<path d="M132.522 15.3643C134.541 15.3643 136.122 15.985 137.264 17.2264C138.407 18.4512 138.977 20.1726 138.977 22.3906C138.977 23.7974 138.713 25.0306 138.182 26.0899C137.669 27.1327 136.925 27.9437 135.949 28.523C134.988 29.1023 133.846 29.392 132.522 29.392C130.519 29.392 128.939 28.7796 127.78 27.5548C126.638 26.3134 126.067 24.5837 126.067 22.3657C126.067 20.9588 126.323 19.7339 126.836 18.6912C127.366 17.6319 128.111 16.8125 129.071 16.2333C130.047 15.654 131.198 15.3643 132.522 15.3643ZM132.522 18.2443C131.728 18.2443 131.132 18.5836 130.734 19.2622C130.337 19.9243 130.138 20.9588 130.138 22.3657C130.138 23.8057 130.329 24.8567 130.71 25.5189C131.107 26.1809 131.711 26.5119 132.522 26.5119C133.316 26.5119 133.912 26.1809 134.31 25.5189C134.707 24.8403 134.906 23.7974 134.906 22.3906C134.906 20.9506 134.707 19.8995 134.31 19.2374C133.929 18.5754 133.333 18.2443 132.522 18.2443Z" fill="white"/>
<path d="M153.129 10.5471V28.9693H149.653L149.454 27.4299C148.527 28.7375 147.278 29.3914 145.705 29.3914C144.066 29.3914 142.816 28.7624 141.956 27.5044C141.112 26.2465 140.69 24.5251 140.69 22.3402C140.69 20.9996 140.913 19.7995 141.36 18.7402C141.807 17.6809 142.436 16.8533 143.247 16.2574C144.075 15.6616 145.018 15.3636 146.077 15.3636C147.335 15.3636 148.378 15.7774 149.205 16.6051V10.125L153.129 10.5471ZM146.921 26.5113C147.832 26.5113 148.593 26.0148 149.205 25.0217V19.3361C148.891 18.9554 148.568 18.674 148.237 18.4919C147.923 18.3099 147.558 18.2189 147.145 18.2189C146.416 18.2189 145.838 18.5582 145.407 19.2368C144.976 19.9154 144.761 20.9582 144.761 22.3651C144.761 23.9044 144.944 24.9803 145.308 25.5927C145.688 26.2051 146.226 26.5113 146.921 26.5113Z" fill="white"/>
<path d="M167.692 22.1174C167.692 22.6636 167.668 23.1354 167.619 23.5327H159.45C159.582 24.6416 159.897 25.4195 160.393 25.8664C160.89 26.3134 161.577 26.5368 162.454 26.5368C162.984 26.5368 163.497 26.4458 163.993 26.2637C164.49 26.0651 165.027 25.7671 165.607 25.3699L167.221 27.5548C165.682 28.7796 163.968 29.392 162.082 29.392C159.946 29.392 158.308 28.763 157.166 27.5051C156.024 26.2471 155.452 24.5588 155.452 22.4402C155.452 21.0995 155.693 19.8995 156.172 18.8401C156.653 17.7643 157.356 16.9202 158.283 16.3077C159.21 15.6788 160.319 15.3643 161.61 15.3643C163.514 15.3643 165.003 15.9601 166.079 17.1519C167.155 18.3436 167.692 19.9988 167.692 22.1174ZM163.844 21.0002C163.812 18.9809 163.1 17.9712 161.709 17.9712C161.031 17.9712 160.501 18.2195 160.121 18.716C159.756 19.2126 159.533 20.0319 159.45 21.174H163.844V21.0002Z" fill="white"/>
<path d="M174.54 15.3643C175.483 15.3643 176.369 15.505 177.196 15.7864C178.024 16.0678 178.752 16.465 179.381 16.9781L177.941 19.1877C176.864 18.5091 175.781 18.1698 174.688 18.1698C174.175 18.1698 173.778 18.2609 173.497 18.443C173.232 18.6085 173.1 18.8484 173.1 19.163C173.1 19.4112 173.157 19.6181 173.273 19.7836C173.406 19.9326 173.662 20.0899 174.043 20.2554C174.424 20.4209 175.011 20.6195 175.805 20.8512C177.179 21.2485 178.197 21.7698 178.86 22.4154C179.538 23.0443 179.878 23.9216 179.878 25.0471C179.878 25.941 179.621 26.7188 179.107 27.381C178.594 28.0264 177.891 28.523 176.998 28.8706C176.104 29.2182 175.11 29.392 174.018 29.392C172.909 29.392 171.875 29.2182 170.914 28.8706C169.971 28.523 169.169 28.043 168.506 27.4306L170.418 25.2954C171.526 26.1561 172.694 26.5864 173.919 26.5864C174.514 26.5864 174.978 26.4789 175.309 26.2637C175.657 26.0485 175.83 25.7423 175.83 25.3451C175.83 25.0306 175.765 24.7823 175.631 24.6002C175.499 24.4182 175.243 24.2527 174.862 24.1037C174.481 23.9381 173.877 23.7396 173.049 23.5078C171.742 23.1271 170.765 22.5975 170.12 21.9189C169.475 21.2402 169.151 20.3961 169.151 19.3864C169.151 18.625 169.367 17.9464 169.798 17.3506C170.244 16.7381 170.873 16.258 171.684 15.9105C172.512 15.5463 173.463 15.3643 174.54 15.3643Z" fill="white"/>
</g>
<defs>
<linearGradient id="paint0_linear_2602_4249" x1="29.7081" y1="13.9888" x2="1.19732" y2="30.4495" gradientUnits="userSpaceOnUse">
<stop stop-color="#0663E5"/>
<stop offset="1" stop-color="#0555C4"/>
</linearGradient>
</defs>
</svg>
